<?xml version="1.0" encoding="UTF-8"?>
<svg xmlns="http://www.w3.org/2000/svg" id="Layer_1" data-name="Layer 1" viewBox="0 0 24 24" width="512" height="512"><path d="M7.868,6.516l-2.827-.997L10.525,.036l1.912,1.912L7.868,6.516Zm3.934,1.324l6.742-2.183-3.49-3.49-5.067,5.021,1.815,.651Zm7.187,10.665l-5.496,1.832,.003-3.307c-.541-.225-1.036-.562-1.439-1.013l-.058-.06-.058,.06c-.403,.451-.898,.788-1.439,1.013l.003,3.307-5.496-1.832-.004-2.576-3.001-1.34,.007,6.08,9.988,3.329,9.988-3.329,.007-6.08-3.001,1.34-.004,2.576Zm4.725-9.313l-1.713-2.843-9.996,3.677L1.998,6.349,.285,9.192c-.657,1.095-.131,2.517,1.08,2.92l6.971,3.124c.889,.296,1.865-.065,2.347-.868l1.307-2.451,1.325,2.451c.482,.804,1.458,1.165,2.347,.868l6.971-3.124c1.211-.404,1.737-1.825,1.08-2.92Z"/></svg>
